<svg width="24" height="24" viewBox="0 0 24 24" fill="none" xmlns="http://www.w3.org/2000/svg">
<path d="M16.8538 16.1462C16.9002 16.1927 16.9371 16.2479 16.9622 16.3085C16.9874 16.3692 17.0003 16.4343 17.0003 16.5C17.0003 16.5657 16.9874 16.6307 16.9622 16.6914C16.9371 16.7521 16.9002 16.8073 16.8538 16.8537C16.8073 16.9002 16.7522 16.9371 16.6915 16.9622C16.6308 16.9873 16.5657 17.0003 16.5 17.0003C16.4343 17.0003 16.3693 16.9873 16.3086 16.9622C16.2479 16.9371 16.1927 16.9002 16.1463 16.8537L12 12.7069L7.85378 16.8537C7.75996 16.9476 7.63272 17.0003 7.50003 17.0003C7.36735 17.0003 7.2401 16.9476 7.14628 16.8537C7.05246 16.7599 6.99976 16.6327 6.99976 16.5C6.99976 16.3673 7.05246 16.2401 7.14628 16.1462L11.2932 12L7.14628 7.85375C7.05246 7.75993 6.99976 7.63268 6.99976 7.5C6.99976 7.36732 7.05246 7.24007 7.14628 7.14625C7.2401 7.05243 7.36735 6.99972 7.50003 6.99972C7.63272 6.99972 7.75996 7.05243 7.85378 7.14625L12 11.2931L16.1463 7.14625C16.2401 7.05243 16.3674 6.99972 16.5 6.99972C16.6327 6.99972 16.76 7.05243 16.8538 7.14625C16.9476 7.24007 17.0003 7.36732 17.0003 7.5C17.0003 7.63268 16.9476 7.75993 16.8538 7.85375L12.7069 12L16.8538 16.1462Z" fill="#794FED"/>
</svg>
